<mxfile host="app.diagrams.net" modified="2024-03-05T02:36:14.807Z" agent="Mozilla/5.0 (Macintosh; Intel Mac OS X 10_15_7) AppleWebKit/537.36 (KHTML, like Gecko) Chrome/122.0.0.0 Safari/537.36 Edg/122.0.0.0" version="24.0.1" etag="jSOrql8DDxV0EEF8eXn9" type="github">
  <diagram name="第 1 页" id="_QAJiaYviUXC7CEiB-VJ">
    <mxGraphModel>
      <root>
        <mxCell id="0" />
        <mxCell id="1" parent="0" />
      </root>
    </mxGraphModel>
  </diagram>
</mxfile>
